<?xml version="1.0" encoding="UTF-8"?>
<svg width="970px" height="64px" viewBox="0 0 970 64" version="1.1" xmlns="http://www.w3.org/2000/svg" xmlns:xlink="http://www.w3.org/1999/xlink">
    <!-- Generator: Sketch 50.2 (55047) - http://www.bohemiancoding.com/sketch -->
    <title>Stock Sync Banner</title>
    <desc>Created with Sketch.</desc>
    <defs></defs>
    <g id="Page-1" stroke="none" stroke-width="1" fill="none" fill-rule="evenodd">
        <g id="Stock-Sync-Banner">
            <polygon id="Pink-base" fill="#DA1781" points="0 0 969.640015 0 969.640015 63.8741619 2.04281503e-14 63.8741619"></polygon>
            <g id="Copy" transform="translate(28.000000, 14.000000)">
                <path d="M0.096762,28.93569 L0.096762,6.701315 L15.331135,6.701315 L15.331135,10.138815 L4.003012,10.138815 L4.003012,15.90444 L15.09676,15.90444 L15.09676,19.34194 L4.003012,19.34194 L4.003012,28.93569 L0.096762,28.93569 Z M18.733372,28.93569 L18.733372,12.84194 L22.233372,12.84194 L22.233372,15.201315 C22.8375387,14.4304817 23.592747,13.7846483 24.498997,13.263815 C25.4156637,12.732565 26.405247,12.46694 27.467747,12.46694 L27.467747,15.93569 L26.358372,15.84194 C25.608372,15.84194 24.8219137,16.0554817 23.998997,16.482565 C23.1760803,16.8992317 22.5875387,17.3940233 22.233372,17.96694 L22.233372,28.93569 L18.733372,28.93569 Z M37.735707,29.34194 C35.2461237,29.34194 33.2148737,28.5554817 31.641957,26.982565 C30.079457,25.3992317 29.298207,23.3627733 29.298207,20.87319 C29.298207,18.4461067 30.0742487,16.43569 31.626332,14.84194 C33.188832,13.2377733 35.1367487,12.43569 37.470082,12.43569 C39.8659179,12.43569 41.7825859,13.263815 43.220086,14.920065 C44.6680027,16.576315 45.391961,18.670065 45.391961,21.201315 L45.391961,22.02944 L32.970082,22.02944 C33.126332,23.3627733 33.6627903,24.43569 34.579457,25.24819 C35.5065403,26.06069 36.6784153,26.46694 38.095082,26.46694 C38.876332,26.46694 39.688832,26.3211067 40.532582,26.02944 C41.3763345,25.7273567 42.0846691,25.2846483 42.6575858,24.701315 L44.2669608,26.99819 C42.6627941,28.56069 40.4857095,29.34194 37.7357068,29.34194 L37.735707,29.34194 Z M42.0013362,19.576315 C41.9284193,18.3054817 41.4752931,17.27944 40.6419572,16.49819 C39.8086239,15.7065233 38.7513322,15.31069 37.4700822,15.31069 C36.1992489,15.31069 35.1575822,15.7065233 34.3450822,16.49819 C33.5325822,17.27944 33.0638322,18.3054817 32.9388322,19.576315 L42.0013362,19.576315 Z M56.299432,29.34194 C53.8098487,29.34194 51.7785987,28.5554817 50.205682,26.982565 C48.643182,25.3992317 47.861932,23.3627733 47.861932,20.87319 C47.861932,18.4461067 48.6379737,16.43569 50.190057,14.84194 C51.752557,13.2377733 53.7004737,12.43569 56.033807,12.43569 C58.4296403,12.43569 60.346307,13.263815 61.783807,14.920065 C63.2317237,16.576315 63.955682,18.670065 63.955682,21.201315 L63.955682,22.02944 L51.533807,22.02944 C51.690057,23.3627733 52.2265153,24.43569 53.143182,25.24819 C54.0702653,26.06069 55.2421403,26.46694 56.658807,26.46694 C57.440057,26.46694 58.252557,26.3211067 59.096307,26.02944 C59.940057,25.7273567 60.6483903,25.2846483 61.221307,24.701315 L62.830682,26.99819 C61.2265153,28.56069 59.049432,29.34194 56.299432,29.34194 Z M60.565057,19.576315 C60.4921403,18.3054817 60.0390153,17.27944 59.205682,16.49819 C58.3723487,15.7065233 57.315057,15.31069 56.033807,15.31069 C54.7629737,15.31069 53.721307,15.7065233 52.908807,16.49819 C52.096307,17.27944 51.627557,18.3054817 51.502557,19.576315 L60.565057,19.576315 Z M76.08471,28.93569 L76.08471,6.701315 L91.319085,6.701315 L91.319085,10.138815 L79.99096,10.138815 L79.99096,15.90444 L91.08471,15.90444 L91.08471,19.34194 L79.99096,19.34194 L79.99096,25.49819 L91.319085,25.49819 L91.319085,28.93569 L76.08471,28.93569 Z M105.393113,28.93569 L101.221246,22.99819 L97.0181206,28.93569 L93.1274956,28.93569 L99.0181206,20.670065 L93.4556206,12.84194 L97.3931206,12.84194 L101.221246,18.31069 L105.018113,12.84194 L108.955613,12.84194 L103.393121,20.670065 L109.314988,28.93569 L105.393113,28.93569 Z M120.423829,29.34194 C118.288412,29.34194 116.564454,28.4617317 115.251954,26.701315 L115.251954,35.06069 L111.751954,35.06069 L111.751954,12.84194 L115.251954,12.84194 L115.251954,15.045065 C116.543621,13.3054817 118.267579,12.43569 120.423829,12.43569 C122.580079,12.43569 124.304037,13.2065233 125.595704,14.74819 C126.897787,16.27944 127.548829,18.3211067 127.548829,20.87319 C127.548829,23.4461067 126.892579,25.5033983 125.580079,27.045065 C124.267579,28.576315 122.548829,29.34194 120.423829,29.34194 Z M119.376954,26.232565 C120.783204,26.232565 121.892579,25.732565 122.705079,24.732565 C123.517579,23.732565 123.923829,22.4461067 123.923829,20.87319 C123.923829,19.24819 123.491537,17.9565233 122.626954,16.99819 C121.772787,16.02944 120.689454,15.545065 119.376954,15.545065 C118.585287,15.545065 117.809246,15.7429817 117.048829,16.138815 C116.298829,16.5346483 115.699871,17.0554817 115.251954,17.701315 L115.251954,24.076315 C115.699871,24.6908983 116.293621,25.2065233 117.033204,25.62319 C117.783204,26.02944 118.564454,26.232565 119.376954,26.232565 Z M138.28119,29.34194 C135.885357,29.34194 133.90619,28.5554817 132.34369,26.982565 C130.791607,25.3992317 130.015565,23.3627733 130.015565,20.87319 C130.015565,18.40444 130.786398,16.3836067 132.328065,14.81069 C133.880148,13.2273567 135.864523,12.43569 138.28119,12.43569 C140.708273,12.43569 142.697857,13.2273567 144.24994,14.81069 C145.802023,16.3836067 146.578065,18.40444 146.578065,20.87319 C146.578065,23.3627733 145.802023,25.3992317 144.24994,26.982565 C142.697857,28.5554817 140.708273,29.34194 138.28119,29.34194 Z M138.28119,26.232565 C139.65619,26.232565 140.775982,25.732565 141.640565,24.732565 C142.515565,23.732565 142.953065,22.4461067 142.953065,20.87319 C142.953065,19.2898567 142.515565,18.0086067 141.640565,17.02944 C140.775982,16.0398567 139.65619,15.545065 138.28119,15.545065 C136.927023,15.545065 135.817648,16.0346483 134.953065,17.013815 C134.088482,17.982565 133.65619,19.2690233 133.65619,20.87319 C133.65619,22.46694 134.083273,23.7586067 134.93744,24.74819 C135.791607,25.7377733 136.90619,26.232565 138.28119,26.232565 Z M155.612535,29.34194 C152.727118,29.34194 150.425035,28.5086067 148.706285,26.84194 L150.31566,24.31069 C151.023993,25.0190233 151.883368,25.576315 152.893785,25.982565 C153.904202,26.3783983 154.867743,26.576315 155.78441,26.576315 C156.84691,26.576315 157.638577,26.3783983 158.15941,25.982565 C158.680243,25.576315 158.94066,25.0502733 158.94066,24.40444 C158.94066,23.8211067 158.617743,23.3783983 157.97191,23.076315 C157.336493,22.763815 156.039618,22.40444 154.081285,21.99819 C150.831285,21.31069 149.206285,19.7586067 149.206285,17.34194 C149.206285,15.8940233 149.789618,14.71694 150.956285,13.81069 C152.122952,12.8940233 153.654202,12.43569 155.550035,12.43569 C158.008368,12.43569 160.09691,13.1908983 161.81566,14.701315 L160.34691,17.170065 C159.857327,16.6179817 159.19066,16.1596483 158.34691,15.795065 C157.50316,15.420065 156.581285,15.232565 155.581285,15.232565 C154.643785,15.232565 153.90941,15.420065 153.37816,15.795065 C152.84691,16.1596483 152.581285,16.6283983 152.581285,17.201315 C152.581285,17.7117317 152.867743,18.0971483 153.44066,18.357565 C154.023993,18.607565 155.357327,18.96694 157.44066,19.43569 C160.69066,20.1648567 162.31566,21.8002733 162.31566,24.34194 C162.31566,25.87319 161.701077,27.09194 160.47191,27.99819 C159.25316,28.8940233 157.633368,29.34194 155.612535,29.34194 Z M176.70276,28.93569 L176.70276,26.795065 C176.129843,27.4408983 175.353802,28.02944 174.374635,28.56069 C173.395468,29.0815233 172.275677,29.34194 171.01526,29.34194 C167.567343,29.34194 165.843385,27.638815 165.843385,24.232565 L165.843385,12.84194 L169.343385,12.84194 L169.343385,22.96694 C169.343385,25.1440233 170.42151,26.232565 172.57776,26.232565 C173.463177,26.232565 174.26526,26.0242317 174.98401,25.607565 C175.713177,25.1804817 176.286093,24.6908983 176.70276,24.138815 L176.70276,12.84194 L180.20276,12.84194 L180.20276,28.93569 L176.70276,28.93569 Z M184.740388,28.93569 L184.740388,12.84194 L188.240388,12.84194 L188.240388,15.201315 C188.844555,14.4304817 189.599763,13.7846483 190.506013,13.263815 C191.42268,12.732565 192.412263,12.46694 193.474763,12.46694 L193.474763,15.93569 L192.365388,15.84194 C191.615388,15.84194 190.82893,16.0554817 190.006013,16.482565 C189.183096,16.8992317 188.594555,17.3940233 188.240388,17.96694 L188.240388,28.93569 L184.740388,28.93569 Z M203.742723,29.34194 C201.25314,29.34194 199.22189,28.5554817 197.648973,26.982565 C196.086473,25.3992317 195.305223,23.3627733 195.305223,20.87319 C195.305223,18.4461067 196.081265,16.43569 197.633348,14.84194 C199.195848,13.2377733 201.143765,12.43569 203.477098,12.43569 C205.872931,12.43569 207.789598,13.263815 209.227098,14.920065 C210.675015,16.576315 211.398973,18.670065 211.398973,21.201315 L211.398973,22.02944 L198.977098,22.02944 C199.133348,23.3627733 199.669806,24.43569 200.586473,25.24819 C201.513556,26.06069 202.685431,26.46694 204.102098,26.46694 C204.883348,26.46694 205.695848,26.3211067 206.539598,26.02944 C207.383348,25.7273567 208.091681,25.2846483 208.664598,24.701315 L210.273973,26.99819 C208.669806,28.56069 206.492723,29.34194 203.742723,29.34194 Z M208.008348,19.576315 C207.935431,18.3054817 207.482306,17.27944 206.648973,16.49819 C205.81564,15.7065233 204.758348,15.31069 203.477098,15.31069 C202.206265,15.31069 201.164598,15.7065233 200.352098,16.49819 C199.539598,17.27944 199.070848,18.3054817 198.945848,19.576315 L208.008348,19.576315 Z M216.665819,17.263815 C216.019986,17.263815 215.467902,17.0398567 215.009569,16.59194 C214.561652,16.1336067 214.337694,15.5815233 214.337694,14.93569 C214.337694,14.2898567 214.561652,13.7429817 215.009569,13.295065 C215.467902,12.8367317 216.019986,12.607565 216.665819,12.607565 C217.311652,12.607565 217.863736,12.8367317 218.322069,13.295065 C218.780402,13.7429817 219.009569,14.2898567 219.009569,14.93569 C219.009569,15.5815233 218.780402,16.1336067 218.322069,16.59194 C217.863736,17.0398567 217.311652,17.263815 216.665819,17.263815 Z M216.665819,29.295065 C216.019986,29.295065 215.467902,29.0711067 215.009569,28.62319 C214.561652,28.1648567 214.337694,27.6127733 214.337694,26.96694 C214.337694,26.3211067 214.561652,25.7742317 215.009569,25.326315 C215.467902,24.8679817 216.019986,24.638815 216.665819,24.638815 C217.311652,24.638815 217.863736,24.8679817 218.322069,25.326315 C218.780402,25.7742317 219.009569,26.3211067 219.009569,26.96694 C219.009569,27.6127733 218.780402,28.1648567 218.322069,28.62319 C217.863736,29.0711067 217.311652,29.295065 216.665819,29.295065 Z" id="Shape" fill="#FFFFFF" fill-rule="nonzero"></path>
                <path d="M243.3365,28.93569 L242.024,25.52944 L233.86772,25.52944 L232.570845,28.93569 L229.02397,28.93569 L236.008345,11.15444 L239.899,11.15444 L246.883375,28.93569 L243.3365,28.93569 Z M237.945845,14.295065 L234.74272,22.77944 L241.149,22.77944 L237.945845,14.295065 Z M257.807325,28.93569 L257.807325,27.170065 C256.723991,28.5554817 255.348991,29.24819 253.682325,29.24819 C251.973991,29.24819 250.588575,28.6440233 249.526075,27.43569 C248.473991,26.2273567 247.94795,24.5867317 247.94795,22.513815 C247.94795,20.482565 248.473991,18.8471483 249.526075,17.607565 C250.588575,16.3679817 251.973991,15.74819 253.682325,15.74819 C255.369825,15.74819 256.744825,16.4461067 257.807325,17.84194 L257.807325,11.15444 L260.6042,11.15444 L260.6042,28.93569 L257.807325,28.93569 Z M254.4792,26.77944 C255.156283,26.77944 255.796908,26.6179817 256.401075,26.295065 C257.015658,25.9617317 257.484408,25.5554817 257.807325,25.076315 L257.807325,19.951315 C257.484408,19.4721483 257.015658,19.0658983 256.401075,18.732565 C255.796908,18.388815 255.156283,18.21694 254.4792,18.21694 C253.3542,18.21694 252.468783,18.6179817 251.82295,19.420065 C251.177116,20.2221483 250.8542,21.2533983 250.8542,22.513815 C250.8542,23.8054817 251.192741,24.84194 251.869825,25.62319 C252.557325,26.3940233 253.427116,26.77944 254.4792,26.77944 Z M267.622694,28.93569 L262.372694,16.06069 L265.357069,16.06069 L269.107069,25.71694 L272.872694,16.06069 L275.888319,16.06069 L270.622694,28.93569 L267.622694,28.93569 Z M283.577589,29.24819 C281.588005,29.24819 279.968214,28.6179817 278.718214,27.357565 C277.468214,26.0971483 276.843214,24.4721483 276.843214,22.482565 C276.843214,20.545065 277.463005,18.9408983 278.702589,17.670065 C279.952589,16.388815 281.50988,15.74819 283.374464,15.74819 C285.29113,15.74819 286.827589,16.4096483 287.983839,17.732565 C289.140089,19.0554817 289.718214,20.7273567 289.718214,22.74819 L289.718214,23.420065 L279.765089,23.420065 C279.890089,24.482565 280.32238,25.34194 281.061964,25.99819 C281.801547,26.6440233 282.739047,26.96694 283.874464,26.96694 C284.499464,26.96694 285.150505,26.8471483 285.827589,26.607565 C286.504672,26.3679817 287.07238,26.013815 287.530714,25.545065 L288.811964,27.388815 C287.530714,28.6283983 285.785922,29.24819 283.577589,29.24819 Z M286.999464,21.451315 C286.94738,20.4304817 286.588005,19.607565 285.921339,18.982565 C285.254672,18.3471483 284.405714,18.02944 283.374464,18.02944 C282.364047,18.02944 281.530714,18.3471483 280.874464,18.982565 C280.22863,19.607565 279.85363,20.4304817 279.749464,21.451315 L286.999464,21.451315 Z M292.487562,28.93569 L292.487562,16.06069 L295.284437,16.06069 L295.284437,17.951315 C295.763603,17.326315 296.36777,16.8054817 297.096937,16.388815 C297.826103,15.9721483 298.61777,15.763815 299.471937,15.763815 L299.471937,18.545065 L298.596937,18.46694 C297.99277,18.46694 297.357353,18.6336067 296.690687,18.96694 C296.034437,19.3002733 295.565687,19.701315 295.284437,20.170065 L295.284437,28.93569 L292.487562,28.93569 Z M305.596632,29.24819 C304.513298,29.24819 303.690382,28.96694 303.127882,28.40444 C302.575798,27.8315233 302.299757,27.013815 302.299757,25.951315 L302.299757,18.513815 L300.159132,18.513815 L300.159132,16.06069 L302.299757,16.06069 L302.299757,12.545065 L305.096632,12.545065 L305.096632,16.06069 L307.706007,16.06069 L307.706007,18.513815 L305.096632,18.513815 L305.096632,25.263815 C305.096632,25.701315 305.19559,26.0658983 305.393507,26.357565 C305.60184,26.638815 305.909132,26.77944 306.315382,26.77944 C306.888298,26.77944 307.310173,26.6283983 307.581007,26.326315 L308.237257,28.43569 C307.685173,28.9773567 306.804965,29.24819 305.596632,29.24819 Z M311.631177,14.482565 C311.162427,14.482565 310.756177,14.3158983 310.412427,13.982565 C310.068677,13.6492317 309.896802,13.2377733 309.896802,12.74819 C309.896802,12.2690233 310.068677,11.8627733 310.412427,11.52944 C310.756177,11.1961067 311.162427,11.02944 311.631177,11.02944 C312.110344,11.02944 312.516594,11.1961067 312.849927,11.52944 C313.193677,11.8627733 313.365552,12.2690233 313.365552,12.74819 C313.365552,13.2377733 313.193677,13.6492317 312.849927,13.982565 C312.516594,14.3158983 312.110344,14.482565 311.631177,14.482565 Z M310.240552,28.93569 L310.240552,16.06069 L313.037427,16.06069 L313.037427,28.93569 L310.240552,28.93569 Z M321.05531,29.24819 C318.753227,29.24819 316.914685,28.5867317 315.539685,27.263815 L316.820935,25.232565 C317.393852,25.795065 318.081352,26.2377733 318.883435,26.56069 C319.695935,26.8836067 320.466769,27.045065 321.195935,27.045065 C322.050102,27.045065 322.685519,26.8836067 323.102185,26.56069 C323.518852,26.2377733 323.727185,25.8211067 323.727185,25.31069 C323.727185,24.8523567 323.466769,24.49819 322.945935,24.24819 C322.435519,23.99819 321.39906,23.7117317 319.83656,23.388815 C317.24281,22.8367317 315.945935,21.59194 315.945935,19.65444 C315.945935,18.49819 316.409477,17.56069 317.33656,16.84194 C318.27406,16.1127733 319.498019,15.74819 321.008435,15.74819 C322.977185,15.74819 324.64906,16.3523567 326.02406,17.56069 L324.852185,19.52944 C324.456352,19.0815233 323.919894,18.7117317 323.24281,18.420065 C322.576144,18.1283983 321.841769,17.982565 321.039685,17.982565 C320.289685,17.982565 319.701144,18.1283983 319.27406,18.420065 C318.846977,18.7117317 318.633435,19.0867317 318.633435,19.545065 C318.633435,19.9617317 318.862602,20.2742317 319.320935,20.482565 C319.789685,20.6804817 320.857394,20.96694 322.52406,21.34194 C325.11781,21.9252733 326.414685,23.232565 326.414685,25.263815 C326.414685,26.482565 325.925102,27.451315 324.945935,28.170065 C323.977185,28.888815 322.68031,29.24819 321.05531,29.24819 Z M335.183911,29.24819 C333.194328,29.24819 331.574536,28.6179817 330.324536,27.357565 C329.074536,26.0971483 328.449536,24.4721483 328.449536,22.482565 C328.449536,20.545065 329.069328,18.9408983 330.308911,17.670065 C331.558911,16.388815 333.116203,15.74819 334.980786,15.74819 C336.897453,15.74819 338.433911,16.4096483 339.590161,17.732565 C340.746411,19.0554817 341.324536,20.7273567 341.324536,22.74819 L341.324536,23.420065 L331.371411,23.420065 C331.496411,24.482565 331.928703,25.34194 332.668286,25.99819 C333.40787,26.6440233 334.34537,26.96694 335.480786,26.96694 C336.105786,26.96694 336.756828,26.8471483 337.433911,26.607565 C338.110995,26.3679817 338.678703,26.013815 339.137036,25.545065 L340.418286,27.388815 C339.137036,28.6283983 337.392245,29.24819 335.183911,29.24819 Z M338.605786,21.451315 C338.553703,20.4304817 338.194328,19.607565 337.527661,18.982565 C336.860995,18.3471483 336.012036,18.02944 334.980786,18.02944 C333.97037,18.02944 333.137036,18.3471483 332.480786,18.982565 C331.834953,19.607565 331.459953,20.4304817 331.355786,21.451315 L338.605786,21.451315 Z M356.757031,29.24819 C354.840365,29.24819 353.257031,28.6179817 352.007031,27.357565 C350.767448,26.0971483 350.147656,24.4721483 350.147656,22.482565 C350.147656,20.513815 350.76224,18.8992317 351.991406,17.638815 C353.23099,16.3783983 354.819531,15.74819 356.757031,15.74819 C358.694531,15.74819 360.283073,16.3783983 361.522656,17.638815 C362.772656,18.8992317 363.397656,20.513815 363.397656,22.482565 C363.397656,24.4721483 362.772656,26.0971483 361.522656,27.357565 C360.283073,28.6179817 358.694531,29.24819 356.757031,29.24819 Z M356.757031,26.77944 C357.861198,26.77944 358.757031,26.3783983 359.444531,25.576315 C360.142448,24.7742317 360.491406,23.7429817 360.491406,22.482565 C360.491406,21.2221483 360.142448,20.1961067 359.444531,19.40444 C358.757031,18.6127733 357.861198,18.21694 356.757031,18.21694 C355.673698,18.21694 354.783073,18.607565 354.085156,19.388815 C353.397656,20.170065 353.053906,21.201315 353.053906,22.482565 C353.053906,23.763815 353.392448,24.8002733 354.069531,25.59194 C354.757031,26.3836067 355.652865,26.77944 356.757031,26.77944 Z M374.905987,28.93569 L374.905987,20.888815 C374.905987,19.107565 374.046612,18.21694 372.327862,18.21694 C371.598696,18.21694 370.942446,18.3940233 370.359112,18.74819 C369.786196,19.1023567 369.338279,19.5033983 369.015362,19.951315 L369.015362,28.93569 L366.218487,28.93569 L366.218487,16.06069 L369.015362,16.06069 L369.015362,17.826315 C369.546612,17.201315 370.218487,16.701315 371.030987,16.326315 C371.843487,15.9408983 372.682029,15.74819 373.546612,15.74819 C376.317446,15.74819 377.702862,17.12319 377.702862,19.87319 L377.702862,28.93569 L374.905987,28.93569 Z M510.478957,23.68569 L510.478957,21.27944 L524.682082,21.27944 L524.682082,23.68569 L510.478957,23.68569 Z" id="Shape" fill="#FFFFFF" fill-rule="nonzero"></path>
                <path d="M533.51166,28.93569 L533.51166,26.40444 L542.60541,13.90444 L533.51166,13.90444 L533.51166,11.15444 L546.652285,11.15444 L546.652285,13.68569 L537.558535,26.18569 L546.839785,26.18569 L546.839785,28.93569 L533.51166,28.93569 Z M549.93085,28.93569 L549.93085,11.15444 L562.11835,11.15444 L562.11835,13.90444 L553.05585,13.90444 L553.05585,18.513815 L561.93085,18.513815 L561.93085,21.263815 L553.05585,21.263815 L553.05585,26.18569 L562.11835,26.18569 L562.11835,28.93569 L549.93085,28.93569 Z M575.467715,28.93569 L571.530215,22.295065 L568.436465,22.295065 L568.436465,28.93569 L565.311465,28.93569 L565.311465,11.15444 L573.123965,11.15444 C574.842715,11.15444 576.238548,11.6648567 577.311465,12.68569 C578.394798,13.7065233 578.936465,15.0554817 578.936465,16.732565 C578.936465,18.0971483 578.551048,19.2586067 577.780215,20.21694 C577.019798,21.1648567 575.998965,21.7429817 574.717715,21.951315 L579.061465,28.93569 L575.467715,28.93569 Z M572.70209,19.545065 C573.587507,19.545065 574.311465,19.2898567 574.873965,18.77944 C575.446882,18.2690233 575.73334,17.5867317 575.73334,16.732565 C575.73334,15.8783983 575.446882,15.1961067 574.873965,14.68569 C574.311465,14.1648567 573.587507,13.90444 572.70209,13.90444 L568.436465,13.90444 L568.436465,19.545065 L572.70209,19.545065 Z M590.348452,29.24819 C587.713035,29.24819 585.535952,28.388815 583.817202,26.670065 C582.108869,24.951315 581.254702,22.74819 581.254702,20.06069 C581.254702,17.3627733 582.114077,15.15444 583.832827,13.43569 C585.561994,11.71694 587.733869,10.857565 590.348452,10.857565 C592.973452,10.857565 595.140119,11.7221483 596.848452,13.451315 C598.567202,15.170065 599.426577,17.37319 599.426577,20.06069 C599.426577,22.7586067 598.561994,24.96694 596.832827,26.68569 C595.114077,28.3940233 592.952619,29.24819 590.348452,29.24819 Z M590.348452,26.482565 C592.067202,26.482565 593.47866,25.888815 594.582827,24.701315 C595.686994,23.5033983 596.239077,21.9565233 596.239077,20.06069 C596.239077,18.1440233 595.681785,16.5971483 594.567202,15.420065 C593.452619,14.232565 592.046369,13.638815 590.348452,13.638815 C588.619285,13.638815 587.202619,14.232565 586.098452,15.420065 C585.004702,16.607565 584.457827,18.15444 584.457827,20.06069 C584.457827,21.9773567 585.00991,23.52944 586.114077,24.71694 C587.22866,25.8940233 588.640119,26.482565 590.348452,26.482565 Z" id="Shape" fill="#7DC9FF" fill-rule="nonzero"></path>
                <path d="M616.9972,29.24819 C614.5597,29.24819 612.663867,28.6127733 611.3097,27.34194 C609.96595,26.06069 609.294075,24.2533983 609.294075,21.920065 L609.294075,11.15444 L612.4347,11.15444 L612.4347,21.81069 C612.4347,23.2377733 612.814908,24.37319 613.575325,25.21694 C614.346158,26.06069 615.486783,26.482565 616.9972,26.482565 C618.486783,26.482565 619.611783,26.06069 620.3722,25.21694 C621.143033,24.37319 621.52845,23.2377733 621.52845,21.81069 L621.52845,11.15444 L624.669075,11.15444 L624.669075,21.90444 C624.669075,24.24819 623.991992,26.06069 622.637825,27.34194 C621.294075,28.6127733 619.413867,29.24819 616.9972,29.24819 Z M635.319221,29.24819 C633.610888,29.24819 632.230679,28.5502733 631.178596,27.15444 L631.178596,33.84194 L628.381721,33.84194 L628.381721,16.06069 L631.178596,16.06069 L631.178596,17.826315 C632.209846,16.4408983 633.590054,15.74819 635.319221,15.74819 C637.037971,15.74819 638.418179,16.3627733 639.459846,17.59194 C640.501513,18.81069 641.022346,20.4408983 641.022346,22.482565 C641.022346,24.545065 640.496304,26.1908983 639.444221,27.420065 C638.392138,28.638815 637.017138,29.24819 635.319221,29.24819 Z M634.491096,26.77944 C635.605679,26.77944 636.485888,26.3783983 637.131721,25.576315 C637.787971,24.7742317 638.116096,23.7429817 638.116096,22.482565 C638.116096,21.1908983 637.772346,20.1596483 637.084846,19.388815 C636.397346,18.607565 635.532763,18.21694 634.491096,18.21694 C633.845263,18.21694 633.220263,18.3783983 632.616096,18.701315 C632.011929,19.0242317 631.532763,19.4408983 631.178596,19.951315 L631.178596,25.045065 C631.532763,25.545065 632.006721,25.9617317 632.600471,26.295065 C633.204638,26.6179817 633.834846,26.77944 634.491096,26.77944 Z M644.460823,28.93569 L644.460823,18.513815 L642.320198,18.513815 L642.320198,16.06069 L644.460823,16.06069 L644.460823,15.34194 C644.460823,13.93569 644.830615,12.84194 645.570198,12.06069 C646.320198,11.27944 647.309781,10.888815 648.538948,10.888815 C649.851448,10.888815 650.882698,11.263815 651.632698,12.013815 L650.538948,13.74819 C650.122281,13.37319 649.622281,13.18569 649.038948,13.18569 C647.851448,13.18569 647.257698,13.90444 647.257698,15.34194 L647.257698,16.06069 L649.867073,16.06069 L649.867073,18.513815 L647.257698,18.513815 L647.257698,28.93569 L644.460823,28.93569 Z M651.999092,28.93569 L651.999092,16.06069 L654.795967,16.06069 L654.795967,17.951315 C655.275134,17.326315 655.8793,16.8054817 656.608467,16.388815 C657.337634,15.9721483 658.1293,15.763815 658.983467,15.763815 L658.983467,18.545065 L658.108467,18.46694 C657.5043,18.46694 656.868884,18.6336067 656.202217,18.96694 C655.545967,19.3002733 655.077217,19.701315 654.795967,20.170065 L654.795967,28.93569 L651.999092,28.93569 Z M667.061226,29.24819 C665.144559,29.24819 663.561226,28.6179817 662.311226,27.357565 C661.071643,26.0971483 660.451851,24.4721483 660.451851,22.482565 C660.451851,20.513815 661.066434,18.8992317 662.295601,17.638815 C663.535184,16.3783983 665.123726,15.74819 667.061226,15.74819 C668.998726,15.74819 670.587268,16.3783983 671.826851,17.638815 C673.076851,18.8992317 673.701851,20.513815 673.701851,22.482565 C673.701851,24.4721483 673.076851,26.0971483 671.826851,27.357565 C670.587268,28.6179817 668.998726,29.24819 667.061226,29.24819 Z M667.061226,26.77944 C668.165393,26.77944 669.061226,26.3783983 669.748726,25.576315 C670.446643,24.7742317 670.795601,23.7429817 670.795601,22.482565 C670.795601,21.2221483 670.446643,20.1961067 669.748726,19.40444 C669.061226,18.6127733 668.165393,18.21694 667.061226,18.21694 C665.977893,18.21694 665.087268,18.607565 664.389351,19.388815 C663.701851,20.170065 663.358101,21.201315 663.358101,22.482565 C663.358101,23.763815 663.696643,24.8002733 664.373726,25.59194 C665.061226,26.3836067 665.957059,26.77944 667.061226,26.77944 Z M685.210213,28.93569 L685.210213,20.888815 C685.210213,19.107565 684.350838,18.21694 682.632088,18.21694 C681.902921,18.21694 681.246671,18.3940233 680.663338,18.74819 C680.090421,19.1023567 679.642505,19.5033983 679.319588,19.951315 L679.319588,28.93569 L676.522713,28.93569 L676.522713,16.06069 L679.319588,16.06069 L679.319588,17.826315 C679.850838,17.201315 680.522713,16.701315 681.335213,16.326315 C682.147713,15.9408983 682.986255,15.74819 683.850838,15.74819 C686.621671,15.74819 688.007088,17.12319 688.007088,19.87319 L688.007088,28.93569 L685.210213,28.93569 Z M695.496163,29.24819 C694.41283,29.24819 693.589913,28.96694 693.027413,28.40444 C692.47533,27.8315233 692.199288,27.013815 692.199288,25.951315 L692.199288,18.513815 L690.058663,18.513815 L690.058663,16.06069 L692.199288,16.06069 L692.199288,12.545065 L694.996163,12.545065 L694.996163,16.06069 L697.605538,16.06069 L697.605538,18.513815 L694.996163,18.513815 L694.996163,25.263815 C694.996163,25.701315 695.095121,26.0658983 695.293038,26.357565 C695.501371,26.638815 695.808663,26.77944 696.214913,26.77944 C696.78783,26.77944 697.209705,26.6283983 697.480538,26.326315 L698.136788,28.43569 C697.584705,28.9773567 696.704496,29.24819 695.496163,29.24819 Z M715.600045,29.24819 C712.902128,29.24819 710.672962,28.3783983 708.912545,26.638815 C707.152128,24.8992317 706.27192,22.7065233 706.27192,20.06069 C706.27192,17.3940233 707.14692,15.1961067 708.89692,13.46694 C710.64692,11.7273567 712.881295,10.857565 715.600045,10.857565 C718.672962,10.857565 721.05317,12.1908983 722.74067,14.857565 L720.08442,16.21694 C719.657337,15.4773567 719.042753,14.8627733 718.24067,14.37319 C717.438587,13.8836067 716.558378,13.638815 715.600045,13.638815 C713.818795,13.638815 712.350045,14.24819 711.193795,15.46694 C710.047962,16.6752733 709.475045,18.2065233 709.475045,20.06069 C709.475045,21.90444 710.047962,23.43569 711.193795,24.65444 C712.339628,25.87319 713.808378,26.482565 715.600045,26.482565 C716.558378,26.482565 717.438587,26.2377733 718.24067,25.74819 C719.042753,25.2586067 719.657337,24.6440233 720.08442,23.90444 L722.74067,25.263815 C721.05317,27.920065 718.672962,29.24819 715.600045,29.24819 Z M730.982674,29.24819 C729.066007,29.24819 727.482674,28.6179817 726.232674,27.357565 C724.993091,26.0971483 724.373299,24.4721483 724.373299,22.482565 C724.373299,20.513815 724.987882,18.8992317 726.217049,17.638815 C727.456632,16.3783983 729.045174,15.74819 730.982674,15.74819 C732.920174,15.74819 734.508716,16.3783983 735.748299,17.638815 C736.998299,18.8992317 737.623299,20.513815 737.623299,22.482565 C737.623299,24.4721483 736.998299,26.0971483 735.748299,27.357565 C734.508716,28.6179817 732.920174,29.24819 730.982674,29.24819 Z M730.982674,26.77944 C732.086841,26.77944 732.982674,26.3783983 733.670174,25.576315 C734.368091,24.7742317 734.717049,23.7429817 734.717049,22.482565 C734.717049,21.2221483 734.368091,20.1961067 733.670174,19.40444 C732.982674,18.6127733 732.086841,18.21694 730.982674,18.21694 C729.899341,18.21694 729.008716,18.607565 728.310799,19.388815 C727.623299,20.170065 727.279549,21.201315 727.279549,22.482565 C727.279549,23.763815 727.618091,24.8002733 728.295174,25.59194 C728.982674,26.3836067 729.878507,26.77944 730.982674,26.77944 Z M744.834786,29.24819 C742.532703,29.24819 740.694161,28.5867317 739.319161,27.263815 L740.600411,25.232565 C741.173328,25.795065 741.860828,26.2377733 742.662911,26.56069 C743.475411,26.8836067 744.246244,27.045065 744.975411,27.045065 C745.829578,27.045065 746.464994,26.8836067 746.881661,26.56069 C747.298328,26.2377733 747.506661,25.8211067 747.506661,25.31069 C747.506661,24.8523567 747.246244,24.49819 746.725411,24.24819 C746.214994,23.99819 745.178536,23.7117317 743.616036,23.388815 C741.022286,22.8367317 739.725411,21.59194 739.725411,19.65444 C739.725411,18.49819 740.188953,17.56069 741.116036,16.84194 C742.053536,16.1127733 743.277494,15.74819 744.787911,15.74819 C746.756661,15.74819 748.428536,16.3523567 749.803536,17.56069 L748.631661,19.52944 C748.235828,19.0815233 747.699369,18.7117317 747.022286,18.420065 C746.355619,18.1283983 745.621244,17.982565 744.819161,17.982565 C744.069161,17.982565 743.480619,18.1283983 743.053536,18.420065 C742.626453,18.7117317 742.412911,19.0867317 742.412911,19.545065 C742.412911,19.9617317 742.642078,20.2742317 743.100411,20.482565 C743.569161,20.6804817 744.636869,20.96694 746.303536,21.34194 C748.897286,21.9252733 750.194161,23.232565 750.194161,25.263815 C750.194161,26.482565 749.704578,27.451315 748.725411,28.170065 C747.756661,28.888815 746.459786,29.24819 744.834786,29.24819 Z M756.885262,29.24819 C755.801929,29.24819 754.979012,28.96694 754.416512,28.40444 C753.864429,27.8315233 753.588387,27.013815 753.588387,25.951315 L753.588387,18.513815 L751.447762,18.513815 L751.447762,16.06069 L753.588387,16.06069 L753.588387,12.545065 L756.385262,12.545065 L756.385262,16.06069 L758.994637,16.06069 L758.994637,18.513815 L756.385262,18.513815 L756.385262,25.263815 C756.385262,25.701315 756.48422,26.0658983 756.682137,26.357565 C756.89047,26.638815 757.197762,26.77944 757.604012,26.77944 C758.176929,26.77944 758.598804,26.6283983 758.869637,26.326315 L759.525887,28.43569 C758.973804,28.9773567 758.093595,29.24819 756.885262,29.24819 Z" id="Shape" fill="#FFFFFF" fill-rule="nonzero"></path>
                <g id="SIGN-UP" transform="translate(778.000000, 6.000000)" fill="#FFFFFF" fill-rule="nonzero">
                    <path d="M10.2477,23.046318 C6.58103333,23.046318 3.69040833,21.9109013 1.575825,19.640068 L3.65395,16.765068 C5.51853333,18.733818 7.77374167,19.718193 10.419575,19.718193 C11.7424917,19.718193 12.7841583,19.4473597 13.544575,18.905693 C14.3154083,18.3536097 14.700825,17.6504847 14.700825,16.796318 C14.700825,16.0984013 14.3779083,15.515068 13.732075,15.046318 C13.0966583,14.577568 12.107075,14.1817347 10.763325,13.858818 C8.05499167,13.2129847 6.21124167,12.624443 5.232075,12.093193 C4.25290833,11.561943 3.50811667,10.8952763 2.9977,10.093193 C2.4977,9.29110967 2.2477,8.33798467 2.2477,7.233818 C2.2477,5.44215133 2.97165833,3.95777633 4.419575,2.780693 C5.87790833,1.593193 7.7477,0.999443 10.02895,0.999443 C13.2893667,0.999443 15.9560333,1.98902633 18.02895,3.968193 L15.888325,6.749443 C14.263325,5.124443 12.2060333,4.311943 9.71645,4.311943 C8.60186667,4.311943 7.71645,4.55673467 7.0602,5.046318 C6.41436667,5.52548467 6.09145,6.16610967 6.09145,6.968193 C6.09145,7.67652633 6.4977,8.23902633 7.3102,8.655693 C8.1227,9.07235967 9.78415833,9.58798467 12.294575,10.202568 C14.325825,10.7129847 15.8674917,11.483818 16.919575,12.515068 C17.982075,13.5359013 18.513325,14.8484013 18.513325,16.452568 C18.513325,18.452568 17.7841583,20.0515263 16.325825,21.249443 C14.8779083,22.4473597 12.8518667,23.046318 10.2477,23.046318 Z M21.958882,22.655693 L21.958882,1.311943 L25.708882,1.311943 L25.708882,22.655693 L21.958882,22.655693 Z M40.496846,23.077568 C37.246846,23.077568 34.5645543,22.030693 32.449971,19.936943 C30.3458043,17.843193 29.293721,15.1973597 29.293721,11.999443 C29.293721,8.780693 30.3458043,6.13485967 32.449971,4.061943 C34.5645543,1.98902633 37.246846,0.952568 40.496846,0.952568 C44.184346,0.952568 47.0541377,2.436943 49.106221,5.405693 L46.028096,7.140068 C45.4760127,6.327568 44.7208043,5.65048467 43.762471,5.108818 C42.8041377,4.55673467 41.715596,4.280693 40.496846,4.280693 C38.3614293,4.280693 36.6010127,5.015068 35.215596,6.483818 C33.8301793,7.94215133 33.137471,9.780693 33.137471,11.999443 C33.137471,14.1973597 33.8301793,16.0411097 35.215596,17.530693 C36.6010127,19.0098597 38.3614293,19.749443 40.496846,19.749443 C41.5801793,19.749443 42.5697627,19.5411097 43.465596,19.124443 C44.3614293,18.7077763 45.0541377,18.2754847 45.543721,17.827568 L45.543721,14.499443 L39.184346,14.499443 L39.184346,11.202568 L49.293721,11.202568 L49.293721,19.202568 C46.949971,21.7859013 44.0176793,23.077568 40.496846,23.077568 Z M68.081502,22.655693 L56.940877,7.421318 L56.940877,22.655693 L53.190938,22.655693 L53.190938,1.311943 L57.034627,1.311943 L67.956502,16.124443 L67.956502,1.311943 L71.690877,1.311943 L71.690877,22.655693 L68.081502,22.655693 Z M93.704976,23.046318 C90.7883093,23.046318 88.517476,22.280693 86.892476,20.749443 C85.267476,19.2077763 84.454976,17.0359013 84.454976,14.233818 L84.454976,1.311943 L88.236226,1.311943 L88.236226,14.108818 C88.236226,15.8171513 88.6945593,17.1817347 89.611226,18.202568 C90.5278927,19.2129847 91.892476,19.718193 93.704976,19.718193 C95.4966427,19.718193 96.8508093,19.2129847 97.767476,18.202568 C98.6841427,17.1817347 99.142476,15.8171513 99.142476,14.108818 L99.142476,1.311943 L102.923726,1.311943 L102.923726,14.202568 C102.923726,17.0254847 102.111226,19.2077763 100.486226,20.749443 C98.8716427,22.280693 96.611226,23.046318 93.704976,23.046318 Z M107.463033,22.655693 L107.463033,1.311943 L116.838033,1.311943 C118.931783,1.311943 120.619283,1.94215133 121.900533,3.202568 C123.181783,4.46298467 123.822408,6.061943 123.822408,7.999443 C123.822408,9.95777633 123.166158,11.561943 121.853658,12.811943 C120.541158,14.061943 118.869283,14.686943 116.838033,14.686943 L111.213033,14.686943 L111.213033,22.655693 L107.463033,22.655693 Z M116.338033,11.390068 C117.400533,11.390068 118.270325,11.0827763 118.947408,10.468193 C119.634908,9.843193 119.978658,9.02027633 119.978658,7.999443 C119.978658,6.97860967 119.634908,6.16090133 118.947408,5.546318 C118.270325,4.921318 117.400533,4.608818 116.338033,4.608818 L111.213033,4.608818 L111.213033,11.390068 L116.338033,11.390068 Z" id="Shape"></path>
                    <polygon id="Shape" points="0.6852 24.73569 124.65346 24.73569 124.65346 27.615691 0.6852 27.615691"></polygon>
                </g>
                <g id="klickly_logo_final" transform="translate(389.000000, 0.000000)" fill="#FFFFFF">
                    <polygon id="Fill-1" points="4.42513429 29.136262 0 29.136262 0 0 4.42513429 0 4.42513429 17.1205155 12.9594621 8.24612241 18.6490607 8.24612241 10.6678046 16.5316859 19.2415373 29.136262 13.8683002 29.136262 7.62562991 19.986896 4.42513429 23.2069923"></polygon>
                    <path d="M31.8297477,5.75133189 C31.2765358,5.20152536 31,4.5474716 31,3.78791632 C31,3.02863977 31.2765358,2.37430728 31.8297477,1.82450075 C32.3828194,1.27469421 33.0410644,1 33.8053242,1 C34.5690231,1 35.2276888,1.27469421 35.7807605,1.82450075 C36.3339724,2.37430728 36.6105082,3.02863977 36.6105082,3.78791632 C36.6105082,4.5474716 36.3339724,5.20152536 35.7807605,5.75133189 C35.2276888,6.30072032 34.5690231,6.57583263 33.8053242,6.57583263 C33.0410644,6.57583263 32.3828194,6.30072032 31.8297477,5.75133189" id="Fill-3"></path>
                    <polygon id="Fill-4" points="65.4254148 29.136262 61 29.136262 61 0 65.4254148 0 65.4254148 17.1205155 73.9594621 8.24612241 79.6489204 8.24612241 71.6679448 16.5316859 80.2416775 29.136262 74.86816 29.136262 68.6256299 19.986896 65.4254148 23.2069923"></polygon>
                    <path d="M91.7072095,26.9557462 C90.6535126,28.1603033 89.1785613,28.7620941 87.2822155,28.7620941 C85.3857293,28.7620941 83.864642,28.1994657 82.7185328,27.0736515 C81.5728443,25.9483947 81,24.2854564 81,22.0867878 L81,1 L85.4249941,1 L85.4249941,21.5760043 C85.4249941,23.6708438 86.2153368,24.717497 87.7957419,24.717497 C88.7173411,24.717497 89.3762873,24.3905399 89.7713184,23.7357893 L91.7072095,26.9557462 Z" id="Fill-5"></path>
                    <path d="M100.917428,33.2097096 C104.815153,33.2097096 106.764786,30.7484717 106.764786,25.8272503 L106.764786,24.5315466 C104.999837,26.3378945 102.748005,27.2408594 100.008449,27.2408594 C94.5562621,27.2408594 91.8300282,24.2700923 91.8300282,18.3274433 L91.8300282,8.03944113 L96.2550223,8.03944113 L96.2550223,16.3640277 C96.2550223,18.7986463 96.6305613,20.5202585 97.3809382,21.5276099 C98.1320162,22.5356583 99.4222831,23.039334 101.253281,23.039334 C103.083719,23.039334 104.420121,22.5746813 105.263331,21.6450971 C106.106261,20.7163492 106.606746,19.3090117 106.764786,17.4240603 L106.764786,8 L111.190201,8 L111.190201,25.9451556 C111.190201,29.5833557 110.235087,32.3715508 108.325559,34.3089046 C106.41533,36.246119 103.946,37.2147262 100.917428,37.2147262 C98.598986,37.2147262 96.5643722,36.6649196 94.8128851,35.5654459 C93.0611175,34.4659722 91.7903428,32.8955743 91,30.8535552 L94.9905579,29.1648338 C96.0180316,31.8609067 97.9934679,33.2097096 100.917428,33.2097096" id="Fill-6"></path>
                    <path d="M55.2851836,22 C53.9257828,23.3922857 52.4965469,24.2318382 51,24.5352422 L51,28.5193536 C53.550384,28.108915 55.8483519,26.8799685 57.8926417,24.8269393 L55.2851836,22 Z" id="Fill-7"></path>
                    <path d="M41.2777863,13.3770939 L41.2777863,14.4153851 L44.589345,14.4153851 C44.7458429,14.2410358 44.9124375,14.0717038 45.0930553,13.9098976 C46.4492308,12.6923792 48.0495487,12.0840382 49.8933079,12.0840382 C51.7369269,12.0840382 53.5680653,12.8693765 55.3856013,14.4400532 L57.9929191,11.2591193 C55.8062947,9.08665185 53.1333487,8 49.9723983,8 C46.8115881,8 44.1312098,9.00149803 41.9321048,11.0039366 C41.1470908,11.7186154 40.5048322,12.5106435 40,13.3770939 L41.2777863,13.3770939 Z" id="Fill-8"></path>
                    <path d="M27.1733844,27.5345413 L25.6063013,27.5345413 L25.6063013,26.3546523 L24.4421023,26.3546523 L24.4421023,22.0734084 L24.4435046,22.0729903 C24.4325665,21.913414 24.4251343,21.7496567 24.4251343,21.5760043 L24.4251343,1 L20,1 L20,22.0867878 C20,24.2854564 20.5731247,25.9483947 21.7189535,27.0736515 C22.8645018,28.1994657 24.3858696,28.7620941 26.2822155,28.7620941 C26.5919861,28.7620941 26.886191,28.7399346 27.1733844,28.7077406 L27.1733844,27.5345413 Z" id="Fill-9"></path>
                    <polygon id="Fill-10" points="33 10.3513116 35.7189418 10.3513116 35.7189418 9 33 9"></polygon>
                    <polygon id="Fill-11" points="36.5056619 22.3056318 36.5056619 16.8046398 39.2731237 16.8046398 39.2731237 22.1135828 40.6804836 22.1135828 40.6804836 18.204312 43.3037878 18.204312 43.3037878 23.4147219 44.6142479 23.4147219 44.6142479 19.5067054 46.1207512 19.5067054 46.1207512 20.8097957 47.4320527 20.8097957 47.4320527 19.4576479 46.1207512 19.4576479 46.1207512 18.1552545 43.3037878 18.1552545 43.3037878 16.7069429 39.2731237 16.7069429 39.2731237 15.3567462 36.6024214 15.3567462 36.6024214 10 35 10 35 22.3056318"></polygon>
                    <polygon id="Fill-12" points="46.8879325 34.1979018 45.576631 34.1979018 45.576631 36.8040823 34.3602422 36.8040823 34.3602422 34.1979018 33 34.1979018 33 38.2044514 46.9360318 38.2044514 46.9360318 34.1979018 48.2474736 34.1979018 48.2474736 30 46.8879325 30"></polygon>
                    <polygon id="Fill-13" points="48 30.3142383 49.5529198 30.3142383 49.5529198 21 48 21"></polygon>
                    <polygon id="Fill-14" points="31.4871048 31.5708126 31.4871048 28.8209438 30.1765045 28.8209438 30.1765045 26.0702387 28.8164025 26.0702387 28.8164025 24.6701483 27.6032628 24.6701483 27.6032628 21.968222 30.0794645 21.968222 30.0309445 23.3199517 31.4385848 23.3199517 31.4385848 27.9041814 32.9926265 27.9041814 32.9926265 10 31.4871048 10 31.4871048 21.968222 30.224744 21.968222 30.224744 20.5206072 26 20.5206072 26 24.7668697 27.4570017 24.7668697 27.4570017 26.2143451 28.8164025 26.2143451 28.8164025 28.9182226 30.1765045 28.9182226 30.1765045 31.620567 31.4871048 31.620567 31.4871048 34.369739 32.8953061 34.369739 32.8953061 31.5708126"></polygon>
                </g>
            </g>
        </g>
    </g>
</svg>